{"title":"Patient 14 (The Eavesdropper) 2004- DVDRip.XViD","uid":8684639,"size":734810112,"categoryP":"video","categoryS":"movies","magnet":"?xt=urn:btih:43cd04a65bfd339e3773aef28d9295063475d892&amp;dn=Patient+14+%28The+Eavesdropper%29+2004-+DVDRip.XViD&amp;tr=udp%3A%2F%2Ftracker.openbittorrent.com%3A80&amp;tr=udp%3A%2F%2Fopen.demonii.com%3A1337&amp;tr=udp%3A%2F%2Ftracker.coppersurfer.tk%3A6969&amp;tr=udp%3A%2F%2Fexodus.desync.com%3A6969","seeders":1,"leechers":1,"uploader":null,"files":1,"time":1373766935,"description":"\nPatient 14 (The Eavesdropper)2004-DVDRip.XViD\n\nFormat : AVI\nFormat/Info  : Audio Video Interleave\nFile size : 701 MiB\nDuration  : 1h 33mn\nOverall bit rate mode  : Variable\nOverall bit rate  : 1 049 Kbps\nWriting application : VirtualDubMod 1.5.10.1 Fr | www.trad-fr.com ||  (build 2439/release)\nWriting library : VirtualDubMod build 2439/release\n\nVideo\nID  : 0\nFormat  : MPEG-4 Visual\nFormat profile  : Advanced Simple@L5\nFormat settings, BVOP  : 2\nFormat settings, QPel   : No\nFormat settings, GMC  : No warppoints\nFormat settings, Matrix  : Default (H.263)\nCodec ID  : XVID\nCodec ID/Hint   : XviD\nDuration   : 1h 33mn\nBit rate  : 905 Kbps\nWidth   : 640 pixels\nHeight   : 352 pixels\nDisplay aspect ratio : 16:9\nFrame rate  : 25.000 fps\nColor space : YUV\nChroma subsampling  : 4:2:0\nBit depth  : 8 bits\nScan type : Progressive\nCompression mode   : Lossy\nBits/(Pixel*Frame)  : 0.161\nStream size  : 605 MiB (86%)\nWriting library  : XviD 0039 build=2005.09.16 (UTC 2005-09-16)\n\nAudio\nID  : 1\nFormat : MPEG Audio\nFormat version  : Version 1\nFormat profile : Layer 3\nMode  : Joint stereo\nMode extension   : MS Stereo\nCodec ID  : 55\nCodec ID/Hint : MP3\nDuration : 1h 33mn\nBit rate mode : Variable\nBit rate   : 128 Kbps\nChannel(s) : 2 channels\nSampling rate  : 48.0 KHz\nCompression mode : Lossy\nStream size  : 87.4 MiB (12%)\nAlignment : Aligned on interleaves\nInterleave, duration   : 24 ms (0.60 video frame)\nInterleave, preload duration  : 244 ms\nWriting library : LAME3.90.\nEncoding settings : -m j -V 4 -q 2 -lowpass 17.6 --abr 128\n","torrent":{"xt":"urn:btih:43cd04a65bfd339e3773aef28d9295063475d892","amp;dn":"Patient+14+%28The+Eavesdropper%29+2004-+DVDRip.XViD","amp;tr":["udp%3A%2F%2Ftracker.openbittorrent.com%3A80","udp%3A%2F%2Fopen.demonii.com%3A1337","udp%3A%2F%2Ftracker.coppersurfer.tk%3A6969","udp%3A%2F%2Fexodus.desync.com%3A6969"],"infoHash":"43cd04a65bfd339e3773aef28d9295063475d892","infoHashBuffer":{"type":"Buffer","data":[67,205,4,166,91,253,51,158,55,115,174,242,141,146,149,6,52,117,216,146]},"announce":[],"urlList":[]}}